<?xml version="1.0" encoding="utf-8"?>
<!-- Generator: Adobe Illustrator 16.0.0, SVG Export Plug-In . SVG Version: 6.00 Build 0)  -->
<!DOCTYPE svg PUBLIC "-//W3C//DTD SVG 1.1//EN" "http://www.w3.org/Graphics/SVG/1.1/DTD/svg11.dtd">
<svg version="1.1" id="Layer_1" xmlns="http://www.w3.org/2000/svg" xmlns:xlink="http://www.w3.org/1999/xlink" x="0px" y="0px"
	 width="897.09px" height="1335.134px" viewBox="0 0 897.09 1335.134" enable-background="new 0 0 897.09 1335.134"
	 xml:space="preserve">
<rect x="2.452" y="-2.843" fill="#6366F1" width="900.527" height="1346.584"/>
<g>
	<path fill="#9C990E" d="M340.151,1001.43c0-50.089,6.819-94.351,20.502-132.807c13.66-38.436,30.515-73.524,50.585-105.27
		c20.069-31.745,42.019-61.462,65.864-89.128c23.825-27.666,45.729-56.217,65.713-85.631c19.984-29.415,36.772-60.879,50.39-94.373
		c13.597-33.493,20.416-72.079,20.416-115.78c0-30.86-4.769-57.792-14.265-80.797c-9.518-23.005-22.056-41.953-37.615-56.8
		c-15.559-14.847-32.996-25.917-52.29-33.212c-19.314-7.272-38.758-10.92-58.354-10.92c-24.818,0-46.981,5.115-66.49,15.301
		c-19.509,10.186-35.78,23.307-48.771,39.32c-12.992,16.013-22.897,33.925-29.695,53.736c-6.798,19.811-10.186,39.319-10.186,58.526
		c0,13.984,1.92,27.386,5.762,40.204c3.841,12.819,9.625,24.02,17.329,33.623c7.683,9.625,17.308,17.33,28.874,23.156
		c11.547,5.827,25.314,8.739,41.307,8.739c10.509,0,21.904-0.862,34.161-2.611l-127.195,89.991
		c-47.046-26.199-80.733-57.081-101.02-92.603c-20.285-35.521-30.428-72.23-30.428-110.104c0-34.724,7.467-68.583,22.4-101.559
		c14.934-32.976,35.133-62.347,60.599-88.113c25.465-25.768,55.202-46.592,89.17-62.519c33.969-15.905,69.986-23.869,108.055-23.869
		c43.356,0,83.236,6.237,119.664,18.667c36.429,12.452,67.634,30.839,93.66,55.16s46.247,54.707,60.706,91.178
		s21.688,79.028,21.688,127.649c0,44.867-4.64,84.036-13.919,117.528c-9.281,33.493-21.322,63.36-36.104,89.56
		c-14.783,26.199-31.745,49.786-50.864,70.763c-19.143,20.976-38.718,40.938-58.723,59.864
		c-20.005,18.927-39.558,37.853-58.677,56.779c-19.121,18.946-36.061,39.772-50.822,62.475
		c-14.761,22.725-26.782,48.061-36.04,76.029c-9.279,27.969-13.898,60.577-13.898,97.846H340.151z M291.812,1175.456
		c0-12.257,2.309-23.781,6.948-34.571c4.619-10.791,10.855-20.285,18.668-28.443c7.812-8.158,16.94-14.589,27.386-19.25
		c10.423-4.661,21.709-7.015,33.881-7.015c12.344,0,23.933,2.354,34.81,7.015c10.876,4.661,20.415,11.092,28.658,19.25
		c8.225,8.158,14.677,17.652,19.381,28.443c4.704,10.79,7.058,22.314,7.058,34.571c0,12.259-2.354,23.631-7.058,34.119
		c-4.704,10.511-11.156,19.702-19.381,27.58c-8.243,7.854-17.782,14.135-28.658,18.817c-10.877,4.642-22.466,6.993-34.81,6.993
		c-24.343,0-44.909-8.459-61.699-25.378C300.206,1220.668,291.812,1199.972,291.812,1175.456z"/>
</g>
</svg>
